<svg width="280" height="243" viewBox="0 0 280 243" fill="none" xmlns="http://www.w3.org/2000/svg">
<g id="Group 53">
<g id="Vector">
<mask id="path-1-inside-1_301_515" fill="white">
<path d="M70.7327 180.9C68.8192 181.264 66.8429 181.136 64.9942 180.527C63.1455 179.918 61.4866 178.848 60.1775 177.422C56.8545 173.716 56.444 168.353 56.1975 163.407L55.4686 148.779L60.8525 153.74C64.7242 157.308 68.679 160.984 71.0263 165.673C73.3736 170.362 73.8049 176.356 70.7142 180.604"/>
</mask>
<path d="M70.7327 180.9C68.8192 181.264 66.8429 181.136 64.9942 180.527C63.1455 179.918 61.4866 178.848 60.1775 177.422C56.8545 173.716 56.444 168.353 56.1975 163.407L55.4686 148.779L60.8525 153.74C64.7242 157.308 68.679 160.984 71.0263 165.673C73.3736 170.362 73.8049 176.356 70.7142 180.604" fill="#E6E6E6"/>
<path d="M60.1775 177.422L59.439 178.099L59.4313 178.09L60.1775 177.422ZM56.1975 163.407L55.1983 163.46L56.1975 163.407ZM55.4686 148.779L54.4693 148.832L54.3473 146.383L56.1482 148.043L55.4686 148.779ZM60.8525 153.74L61.5321 153.004L61.5321 153.004L60.8525 153.74ZM70.9171 181.881C68.8364 182.278 66.6878 182.139 64.678 181.476L65.3104 179.578C66.998 180.134 68.802 180.251 70.5483 179.918L70.9171 181.881ZM64.678 181.476C62.6681 180.814 60.8637 179.651 59.439 178.099L60.916 176.745C62.1096 178.046 63.6228 179.022 65.3104 179.578L64.678 181.476ZM59.4313 178.09C55.8364 174.081 55.4417 168.344 55.1983 163.46L57.1968 163.354C57.4463 168.362 57.8726 173.351 60.9237 176.754L59.4313 178.09ZM55.1983 163.46L54.4693 148.832L56.4678 148.726L57.1968 163.354L55.1983 163.46ZM56.1482 148.043L61.5321 153.004L60.1728 154.476L54.7889 149.514L56.1482 148.043ZM61.5321 153.004C65.3807 156.551 69.4792 160.345 71.9214 165.224L70.1312 166.123C67.8788 161.623 64.0678 158.065 60.1728 154.476L61.5321 153.004ZM71.9214 165.224C74.3691 170.114 74.9094 176.536 71.5228 181.19L69.9056 180.018C72.7004 176.177 72.378 170.611 70.1312 166.123L71.9214 165.224Z" fill="#222132" mask="url(#path-1-inside-1_301_515)"/>
</g>
<g id="Vector_2">
<mask id="path-3-inside-2_301_515" fill="white">
<path d="M67.6344 198.027C68.8982 193.746 70.1876 189.412 70.4256 184.934C70.637 180.956 70.002 176.947 68.009 173.444C66.9507 171.588 65.5728 169.929 63.9374 168.541C63.511 168.178 62.9673 168.851 63.3918 169.212C66.2206 171.62 68.2025 174.854 69.0517 178.447C69.9858 182.441 69.6086 186.59 68.7473 190.561C68.2265 192.962 67.5329 195.322 66.8372 197.678C66.7945 197.783 66.7937 197.9 66.835 198.006C66.8763 198.111 66.9565 198.197 67.0595 198.246C67.1653 198.292 67.285 198.294 67.3926 198.253C67.5003 198.212 67.5871 198.131 67.6344 198.027Z"/>
</mask>
<path d="M67.6344 198.027C68.8982 193.746 70.1876 189.412 70.4256 184.934C70.637 180.956 70.002 176.947 68.009 173.444C66.9507 171.588 65.5728 169.929 63.9374 168.541C63.511 168.178 62.9673 168.851 63.3918 169.212C66.2206 171.62 68.2025 174.854 69.0517 178.447C69.9858 182.441 69.6086 186.59 68.7473 190.561C68.2265 192.962 67.5329 195.322 66.8372 197.678C66.7945 197.783 66.7937 197.9 66.835 198.006C66.8763 198.111 66.9565 198.197 67.0595 198.246C67.1653 198.292 67.285 198.294 67.3926 198.253C67.5003 198.212 67.5871 198.131 67.6344 198.027Z" fill="#F2F2F2"/>
<path d="M70.4256 184.934L71.4247 184.983L71.4247 184.983L70.4256 184.934ZM68.009 173.444L68.8788 172.948L68.8792 172.948L68.009 173.444ZM63.9374 168.541L63.2881 169.303L63.2875 169.303L63.9374 168.541ZM63.3918 169.212L64.0417 168.45L64.0422 168.451L63.3918 169.212ZM69.0517 178.447L70.0255 178.214L70.026 178.217L69.0517 178.447ZM68.7473 190.561L67.7695 190.352L68.7473 190.561ZM66.8372 197.678L67.7968 197.958L67.7827 198.006L67.7639 198.052L66.8372 197.678ZM67.0595 198.246L66.6612 199.164L66.643 199.157L66.6252 199.148L67.0595 198.246ZM66.6749 197.747C67.9451 193.445 69.1958 189.225 69.4265 184.884L71.4247 184.983C71.1793 189.6 69.8513 194.048 68.594 198.306L66.6749 197.747ZM69.4265 184.884C69.6307 181.042 69.0135 177.235 67.1388 173.941L68.8792 172.948C70.9905 176.659 71.6433 180.87 71.4247 184.983L69.4265 184.884ZM67.1393 173.941C66.1386 172.186 64.8354 170.617 63.2881 169.303L64.5867 167.778C66.3102 169.241 67.7628 170.99 68.8788 172.948L67.1393 173.941ZM63.2875 169.303C63.3951 169.394 63.5766 169.461 63.7777 169.427C63.95 169.398 64.0615 169.308 64.1225 169.232C64.1839 169.156 64.2413 169.038 64.2383 168.882C64.2349 168.7 64.1499 168.542 64.0417 168.45L62.7419 169.974C62.4214 169.702 62.2452 169.324 62.2377 168.926C62.2306 168.554 62.3709 168.222 62.5686 167.978C62.7657 167.735 63.0666 167.522 63.4475 167.457C63.8571 167.387 64.2666 167.506 64.5873 167.779L63.2875 169.303ZM64.0422 168.451C67.0312 170.995 69.1271 174.414 70.0255 178.214L68.078 178.68C67.2778 175.295 65.41 172.246 62.7414 169.974L64.0422 168.451ZM70.026 178.217C71.0076 182.414 70.6018 186.728 69.7251 190.77L67.7695 190.352C68.6154 186.453 68.9641 182.469 68.0774 178.677L70.026 178.217ZM69.7251 190.77C69.1952 193.212 68.4911 195.607 67.7968 197.958L65.8777 197.398C66.5748 195.037 67.2577 192.712 67.7695 190.352L69.7251 190.77ZM67.7639 198.052C67.818 197.919 67.8187 197.771 67.767 197.639L65.903 198.372C65.7688 198.029 65.7711 197.647 65.9106 197.304L67.7639 198.052ZM67.767 197.639C67.7155 197.507 67.6168 197.403 67.4938 197.344L66.6252 199.148C66.2962 198.991 66.037 198.715 65.903 198.372L67.767 197.639ZM67.4578 197.328C67.3251 197.271 67.1746 197.268 67.0379 197.32L67.7474 199.187C67.3954 199.321 67.0055 199.313 66.6612 199.164L67.4578 197.328ZM67.0379 197.32C66.9008 197.372 66.7867 197.477 66.7237 197.616L68.5451 198.437C68.3876 198.784 68.0997 199.052 67.7474 199.187L67.0379 197.32Z" fill="#222132" mask="url(#path-3-inside-2_301_515)"/>
</g>
<g id="Vector_3">
<mask id="path-5-inside-3_301_515" fill="white">
<path d="M62.9498 189.436C61.9937 190.493 60.7784 191.289 59.4208 191.747C58.0632 192.205 56.6091 192.31 55.1986 192.052C51.5799 191.346 48.9195 188.386 46.5431 185.598L39.5145 177.352L44.9065 177.885C48.7842 178.268 52.7593 178.678 56.2501 180.389C59.741 182.101 62.6987 185.422 62.8054 189.271"/>
</mask>
<path d="M62.9498 189.436C61.9937 190.493 60.7784 191.289 59.4208 191.747C58.0632 192.205 56.6091 192.31 55.1986 192.052C51.5799 191.346 48.9195 188.386 46.5431 185.598L39.5145 177.352L44.9065 177.885C48.7842 178.268 52.7593 178.678 56.2501 180.389C59.741 182.101 62.6987 185.422 62.8054 189.271" fill="#E6E6E6"/>
<path d="M55.1986 192.052L55.0149 193.035L55.0037 193.032L55.1986 192.052ZM46.5431 185.598L45.7805 186.248L45.7805 186.248L46.5431 185.598ZM39.5145 177.352L38.7519 178.002L37.1421 176.113L39.6162 176.358L39.5145 177.352ZM44.9065 177.885L44.8048 178.88L44.8048 178.88L44.9065 177.885ZM63.6911 190.105C62.6192 191.29 61.2575 192.181 59.7381 192.694L59.1034 190.8C60.2992 190.397 61.3683 189.696 62.2084 188.767L63.6911 190.105ZM59.7381 192.694C58.2188 193.207 56.5922 193.324 55.0149 193.035L55.3823 191.068C56.6259 191.296 57.9076 191.204 59.1034 190.8L59.7381 192.694ZM55.0037 193.032C50.99 192.25 48.1173 188.989 45.7805 186.248L47.3058 184.949C49.7216 187.783 52.1698 190.442 55.3935 191.071L55.0037 193.032ZM45.7805 186.248L38.7519 178.002L40.2772 176.703L47.3058 184.949L45.7805 186.248ZM39.6162 176.358L45.0083 176.89L44.8048 178.88L39.4128 178.347L39.6162 176.358ZM45.0082 176.89C48.8552 177.27 53.0141 177.688 56.6934 179.492L55.8069 181.287C52.5045 179.668 48.7131 179.266 44.8048 178.88L45.0082 176.89ZM56.6934 179.492C60.3806 181.3 63.6849 184.89 63.8055 189.24L61.8053 189.302C61.7124 185.953 59.1014 182.902 55.8069 181.287L56.6934 179.492Z" fill="#222132" mask="url(#path-5-inside-3_301_515)"/>
</g>
<g id="Vector_4">
<mask id="path-7-inside-4_301_515" fill="white">
<path d="M68.9723 200.79C66.8185 195.252 64.2832 189.077 58.5007 186.374C56.8927 185.624 55.1543 185.184 53.3793 185.079C52.82 185.045 52.8315 185.907 53.3897 185.941C56.3629 186.131 59.1789 187.327 61.3638 189.329C63.4676 191.247 64.9608 193.703 66.1542 196.251C66.8853 197.811 67.5087 199.417 68.1326 201.021C68.332 201.534 69.174 201.309 68.9723 200.79L68.9723 200.79Z"/>
</mask>
<path d="M68.9723 200.79C66.8185 195.252 64.2832 189.077 58.5007 186.374C56.8927 185.624 55.1543 185.184 53.3793 185.079C52.82 185.045 52.8315 185.907 53.3897 185.941C56.3629 186.131 59.1789 187.327 61.3638 189.329C63.4676 191.247 64.9608 193.703 66.1542 196.251C66.8853 197.811 67.5087 199.417 68.1326 201.021C68.332 201.534 69.174 201.309 68.9723 200.79L68.9723 200.79Z" fill="#F2F2F2"/>
<path d="M68.9723 200.79L69.9616 200.935L69.4021 204.658L68.0395 201.155L68.9723 200.79ZM58.5007 186.374L58.9264 185.468L58.9273 185.468L58.5007 186.374ZM53.3793 185.079L53.317 186.077L53.3153 186.077L53.3793 185.079ZM53.3897 185.941L53.4538 184.943L53.4569 184.943L53.3897 185.941ZM61.3638 189.329L60.6881 190.069L60.6863 190.067L61.3638 189.329ZM66.1542 196.251L67.0607 195.824L67.0607 195.824L66.1542 196.251ZM68.1326 201.021L69.0654 200.657L69.0654 200.657L68.1326 201.021ZM68.9723 200.79L67.9829 200.645L68.5424 196.922L69.905 200.425L68.9723 200.79ZM68.0395 201.155C65.8584 195.546 63.4388 189.787 58.0742 187.279L58.9273 185.468C65.1276 188.367 67.7787 194.958 69.905 200.425L68.0395 201.155ZM58.075 187.279C56.5812 186.583 54.9662 186.175 53.317 186.077L53.4417 184.082C55.3425 184.194 57.2041 184.664 58.9264 185.468L58.075 187.279ZM53.3153 186.077C53.4557 186.086 53.6576 186.031 53.8095 185.862C53.939 185.718 53.9671 185.564 53.9659 185.469C53.9646 185.37 53.9331 185.253 53.8437 185.146C53.7406 185.022 53.5917 184.951 53.4538 184.943L53.3257 186.938C52.4081 186.883 51.9728 186.113 51.965 185.501C51.9611 185.189 52.0562 184.825 52.3235 184.528C52.6131 184.206 53.0233 184.056 53.4434 184.082L53.3153 186.077ZM53.4569 184.943C56.6566 185.148 59.6882 186.436 62.0414 188.592L60.6863 190.067C58.6697 188.219 56.0692 187.114 53.3225 186.938L53.4569 184.943ZM62.0396 188.59C64.2796 190.632 65.84 193.219 67.0607 195.824L65.2478 196.677C64.0815 194.187 62.6556 191.862 60.6881 190.069L62.0396 188.59ZM67.0607 195.824C67.8083 197.42 68.4437 199.058 69.0654 200.657L67.1999 201.386C66.5737 199.776 65.9622 198.201 65.2478 196.677L67.0607 195.824ZM69.0654 200.657C69.0125 200.521 68.898 200.407 68.761 200.351C68.6428 200.302 68.5323 200.304 68.4433 200.328C68.3584 200.351 68.2131 200.418 68.1056 200.59C67.9773 200.796 67.9865 201.018 68.0395 201.155L69.905 200.425C70.0589 200.821 70.0385 201.266 69.8028 201.644C69.5879 201.988 69.2576 202.177 68.9624 202.257C68.3928 202.412 67.5306 202.236 67.1999 201.386L69.0654 200.657ZM69.9617 200.935L69.9616 200.935L67.9829 200.645L67.9829 200.645L69.9617 200.935Z" fill="#222132" mask="url(#path-7-inside-4_301_515)"/>
</g>
<g id="Vector_5">
<mask id="path-9-inside-5_301_515" fill="white">
<path d="M146.375 175.469C149.772 177.241 153.573 178.117 157.413 178.015C161.252 177.913 165 176.835 168.296 174.886C176.711 169.778 180.594 159.898 183.925 150.711C187.21 141.653 190.495 132.595 193.78 123.538L180.751 129.846C171.382 134.382 161.793 139.075 154.648 146.589C147.504 154.103 143.216 165.163 146.582 174.922"/>
</mask>
<path d="M146.375 175.469C149.772 177.241 153.573 178.117 157.413 178.015C161.252 177.913 165 176.835 168.296 174.886C176.711 169.778 180.594 159.898 183.925 150.711C187.21 141.653 190.495 132.595 193.78 123.538L180.751 129.846C171.382 134.382 161.793 139.075 154.648 146.589C147.504 154.103 143.216 165.163 146.582 174.922" fill="#E6E6E6"/>
<path d="M168.296 174.886L168.813 175.74L168.804 175.746L168.296 174.886ZM183.925 150.711L182.985 150.374L182.985 150.374L183.925 150.711ZM193.78 123.538L193.346 122.638L195.557 121.568L194.72 123.875L193.78 123.538ZM180.751 129.846L180.317 128.946L180.317 128.946L180.751 129.846ZM146.84 174.583C150.087 176.276 153.72 177.114 157.39 177.016L157.436 179.014C153.427 179.121 149.458 178.205 145.91 176.356L146.84 174.583ZM157.39 177.016C161.059 176.918 164.64 175.888 167.788 174.027L168.804 175.746C165.36 177.782 161.445 178.908 157.436 179.014L157.39 177.016ZM167.778 174.033C175.844 169.137 179.632 159.619 182.985 150.374L184.866 151.049C181.555 160.178 177.578 170.42 168.813 175.74L167.778 174.033ZM182.985 150.374C186.27 141.316 189.554 132.258 192.839 123.2L194.72 123.875C191.436 132.933 188.151 141.991 184.866 151.049L182.985 150.374ZM194.214 124.437L181.185 130.745L180.317 128.946L193.346 122.638L194.214 124.437ZM181.185 130.745C171.787 135.295 162.371 139.917 155.373 147.277L153.924 145.902C161.215 138.234 170.976 133.469 180.317 128.946L181.185 130.745ZM155.373 147.277C148.383 154.627 144.325 165.309 147.528 174.594L145.636 175.251C142.106 165.017 146.624 153.579 153.924 145.902L155.373 147.277Z" fill="#222132" mask="url(#path-9-inside-5_301_515)"/>
</g>
<path id="Vector_6" d="M166.553 156.467L166.553 156.467C162.717 158.136 159.206 160.453 156.176 163.315C150.475 168.709 146.992 175.815 145.102 183.369C142.987 191.817 142.89 200.588 142.792 209.319L142.791 209.481C142.808 209.562 142.853 209.636 142.921 209.689C142.995 209.745 143.088 209.773 143.181 209.764C143.276 209.747 143.36 209.697 143.418 209.624L143.81 209.933L143.418 209.624C143.477 209.548 143.505 209.454 143.497 209.36L143.495 209.335L143.495 209.31C143.549 204.476 143.609 199.615 144.02 194.771C144.701 186.759 146.406 178.639 150.535 171.545L150.535 171.544C154.274 165.157 159.967 160.109 166.795 157.127L166.795 157.127C166.918 157.073 166.966 157.001 166.987 156.936C167.012 156.859 167.01 156.756 166.969 156.654C166.928 156.552 166.861 156.485 166.8 156.455C166.752 156.431 166.677 156.413 166.553 156.467Z" fill="#F2F2F2" stroke="#222132"/>
<g id="Vector_7">
<mask id="path-12-inside-6_301_515" fill="white">
<path d="M156.103 195.973C157.293 198.508 159.124 200.697 161.418 202.329C163.713 203.961 166.394 204.982 169.204 205.293C176.437 206.01 183.17 201.935 189.267 198.023L207.301 186.452L196.824 184.404C189.29 182.932 181.556 181.454 173.981 182.706C166.406 183.958 158.904 188.545 156.471 195.744"/>
</mask>
<path d="M156.103 195.973C157.293 198.508 159.124 200.697 161.418 202.329C163.713 203.961 166.394 204.982 169.204 205.293C176.437 206.01 183.17 201.935 189.267 198.023L207.301 186.452L196.824 184.404C189.29 182.932 181.556 181.454 173.981 182.706C166.406 183.958 158.904 188.545 156.471 195.744" fill="#E6E6E6"/>
<path d="M169.204 205.293L169.102 206.288L169.09 206.286L169.204 205.293ZM189.267 198.023L189.806 198.864L189.806 198.864L189.267 198.023ZM207.301 186.452L207.496 185.471L209.936 185.948L207.84 187.293L207.301 186.452ZM196.824 184.404L196.629 185.385L196.629 185.385L196.824 184.404ZM157.009 195.546C158.126 197.925 159.844 199.98 162 201.514L160.836 203.144C158.403 201.413 156.46 199.091 155.197 196.4L157.009 195.546ZM162 201.514C164.156 203.048 166.676 204.007 169.317 204.3L169.09 206.286C166.112 205.957 163.269 204.875 160.836 203.144L162 201.514ZM169.306 204.298C176.138 204.976 182.579 201.128 188.728 197.183L189.806 198.864C183.76 202.743 176.736 207.045 169.102 206.288L169.306 204.298ZM188.728 197.183L206.763 185.612L207.84 187.293L189.806 198.864L188.728 197.183ZM207.106 187.433L196.629 185.385L197.02 183.423L207.496 185.471L207.106 187.433ZM196.629 185.385C189.065 183.907 181.509 182.475 174.141 183.692L173.821 181.72C181.604 180.434 189.515 181.956 197.02 183.423L196.629 185.385ZM174.141 183.692C166.782 184.908 159.691 189.336 157.419 196.061L155.523 195.427C158.116 187.753 166.029 183.007 173.821 181.72L174.141 183.692Z" fill="#222132" mask="url(#path-12-inside-6_301_515)"/>
</g>
<path id="Vector_8" d="M166.269 192.716C169.736 192.212 173.269 192.368 176.677 193.175C177.751 193.427 177.23 195.045 176.158 194.793M166.269 192.716L166.34 193.21C166.34 193.211 166.34 193.211 166.339 193.211M166.269 192.716L166.339 193.211C166.339 193.211 166.339 193.211 166.339 193.211M166.269 192.716C153.797 194.541 145.436 204.751 138.165 213.974C137.484 214.838 138.941 215.74 139.614 214.886L139.676 214.808C141.762 212.162 143.85 209.513 146.11 207.009C149.838 202.881 154.077 199.095 159.156 196.669M166.339 193.211C169.744 192.716 173.213 192.869 176.56 193.661L176.561 193.661C176.693 193.692 176.73 193.748 176.746 193.782C176.769 193.831 176.78 193.917 176.746 194.022C176.713 194.126 176.646 194.214 176.568 194.265C176.499 194.31 176.407 194.338 176.274 194.307L176.272 194.306L176.272 194.306C170.445 192.956 164.325 193.631 158.941 196.218M166.339 193.211C154.097 195.002 145.852 205.029 138.557 214.283C138.476 214.386 138.486 214.444 138.493 214.471C138.505 214.517 138.549 214.589 138.648 214.65C138.853 214.778 139.083 214.753 139.221 214.577L139.288 214.493C141.37 211.851 143.467 209.192 145.739 206.675C149.488 202.523 153.779 198.684 158.941 196.218M158.941 196.218C158.941 196.218 158.942 196.218 158.942 196.218L159.156 196.669M158.941 196.218C158.941 196.219 158.941 196.219 158.941 196.219L159.156 196.669M159.156 196.669C164.437 194.131 170.441 193.469 176.158 194.793M176.158 194.793L176.158 194.793L176.158 194.793Z" fill="#F2F2F2" stroke="#222132"/>
<g id="Group 54">
<path id="Vector_9" d="M215.022 53.7918L262.902 35.843L263.525 35.6101C263.842 35.4908 264.186 35.4624 264.518 35.5279C264.851 35.5935 265.158 35.7505 265.404 35.9808C265.65 36.2111 265.826 36.5054 265.91 36.8299C265.995 37.1544 265.985 37.4958 265.882 37.815L252.266 80.1903C252.178 80.4627 252.024 80.7101 251.819 80.9117C251.614 81.1133 251.362 81.2632 251.086 81.3488C250.809 81.4348 250.515 81.4529 250.229 81.4015C249.944 81.35 249.675 81.2306 249.446 81.0536L233.62 68.8706C233.507 68.7814 233.377 68.7163 233.237 68.6793C233.097 68.6423 232.951 68.6343 232.808 68.6558C232.614 68.6822 232.43 68.7604 232.276 68.882C232.123 69.0037 232.006 69.1642 231.938 69.3465L229.925 74.8749C229.798 75.2423 229.551 75.5574 229.223 75.77C228.894 75.9826 228.503 76.0804 228.112 76.048L228.098 76.0471C227.703 76.0242 227.328 75.8708 227.032 75.6117C226.736 75.3526 226.537 75.0027 226.467 74.6184L224.102 62.9053C224.072 62.7591 224.013 62.6204 223.927 62.4978C223.837 62.3773 223.724 62.2752 223.594 62.1973L214.742 56.9863C214.451 56.815 214.215 56.5662 214.06 56.2683C213.906 55.9705 213.84 55.6356 213.869 55.3022C213.898 54.9688 214.022 54.6502 214.226 54.3831C214.43 54.116 214.706 53.9111 215.022 53.7919L215.022 53.7918ZM215.109 56.376L223.961 61.5871C224.076 61.6534 224.183 61.7324 224.28 61.8224L263.153 36.8797C263.187 36.8573 263.223 36.8382 263.261 36.8228C263.416 36.7578 263.589 36.7482 263.75 36.7957C263.911 36.8433 264.05 36.945 264.143 37.0832C264.237 37.2214 264.278 37.3875 264.261 37.5528C264.243 37.718 264.168 37.872 264.047 37.9881L233.544 68.0276C233.732 68.091 233.908 68.186 234.063 68.3083L249.889 80.4912C250.026 80.5966 250.187 80.6678 250.358 80.6986C250.529 80.7294 250.705 80.7189 250.871 80.6681C251.038 80.6172 251.189 80.5275 251.312 80.4065C251.436 80.2856 251.528 80.1369 251.581 79.9732L265.196 37.5979C265.257 37.4066 265.262 37.2023 265.211 37.0083C265.16 36.8143 265.054 36.6384 264.907 36.5007C264.759 36.363 264.576 36.2689 264.377 36.2293C264.178 36.1896 263.972 36.2059 263.782 36.2764L263.145 36.5154L215.28 54.4581C215.09 54.5295 214.924 54.6524 214.802 54.8126C214.679 54.9728 214.604 55.1639 214.586 55.364C214.569 55.5642 214.608 55.7652 214.7 55.9442C214.793 56.1232 214.934 56.2728 215.109 56.376L215.109 56.376Z" fill="#CCCCCC"/>
<path id="Vector_10" d="M215.023 53.7918L262.903 35.843L263.525 35.6101C263.842 35.4908 264.186 35.4624 264.519 35.5279C264.851 35.5935 265.158 35.7505 265.404 35.9808C265.65 36.2111 265.826 36.5054 265.91 36.8299C265.995 37.1544 265.985 37.4958 265.882 37.815L252.266 80.1903C252.178 80.4627 252.024 80.7101 251.819 80.9117C251.614 81.1133 251.362 81.2632 251.086 81.3488C250.809 81.4348 250.515 81.4529 250.229 81.4015C249.944 81.35 249.675 81.2306 249.446 81.0536L233.62 68.8706C233.507 68.7814 233.377 68.7163 233.237 68.6793C233.097 68.6423 232.951 68.6343 232.808 68.6558C232.614 68.6822 232.43 68.7604 232.277 68.882C232.123 69.0037 232.006 69.1642 231.938 69.3465L229.925 74.8749C229.798 75.2423 229.551 75.5574 229.223 75.77C228.894 75.9826 228.503 76.0804 228.112 76.048L228.098 76.0471C227.703 76.0242 227.328 75.8708 227.032 75.6117C226.736 75.3526 226.537 75.0027 226.467 74.6184L224.102 62.9053C224.072 62.7591 224.013 62.6204 223.927 62.4978C223.837 62.3773 223.724 62.2752 223.594 62.1973L214.742 56.9863C214.451 56.815 214.215 56.5662 214.061 56.2683C213.906 55.9705 213.84 55.6356 213.869 55.3022C213.898 54.9688 214.022 54.6502 214.226 54.3831C214.43 54.116 214.706 53.9111 215.023 53.7919L215.023 53.7918ZM215.109 56.376L223.961 61.5871C224.076 61.6534 224.183 61.7324 224.281 61.8224C224.368 61.9024 224.447 61.9913 224.515 62.0878C224.586 62.1862 224.647 62.2919 224.695 62.403L224.695 62.4065C224.746 62.5222 224.784 62.6431 224.808 62.7671L227.173 74.4802C227.213 74.7114 227.332 74.9223 227.509 75.078C227.687 75.2338 227.913 75.3252 228.15 75.3373L228.157 75.3378C228.392 75.3595 228.628 75.3022 228.826 75.175C229.024 75.0477 229.173 74.8582 229.248 74.6369L231.262 69.1051C231.366 68.8205 231.542 68.5669 231.772 68.3682C232.003 68.1696 232.282 68.0326 232.581 67.9702L232.585 67.9704C232.625 67.9624 232.665 67.9544 232.705 67.9499C232.987 67.9079 233.275 67.9346 233.545 68.0276C233.732 68.091 233.908 68.186 234.063 68.3083L249.889 80.4912C250.026 80.5966 250.187 80.6678 250.358 80.6986C250.529 80.7294 250.705 80.7189 250.872 80.6681C251.038 80.6172 251.189 80.5275 251.312 80.4065C251.436 80.2856 251.528 80.1369 251.581 79.9732L265.196 37.5979C265.257 37.4066 265.262 37.2023 265.211 37.0083C265.16 36.8143 265.054 36.6384 264.907 36.5007C264.76 36.363 264.576 36.2689 264.377 36.2293C264.178 36.1896 263.972 36.2059 263.782 36.2764L263.145 36.5154L215.28 54.4581C215.09 54.5295 214.924 54.6524 214.802 54.8126C214.679 54.9728 214.604 55.1639 214.587 55.364C214.569 55.5642 214.608 55.7652 214.701 55.9442C214.793 56.1232 214.934 56.2728 215.109 56.376L215.109 56.376Z" fill="#3F3D56"/>
<path id="Vector_11" d="M224.133 61.9157L224.525 62.5126L224.695 62.4063L224.695 62.4027L263.537 37.483L232.585 67.9701L232.581 67.9699L232.5 68.0536L233.006 68.5583L233.544 68.0273L264.047 37.9879C264.168 37.8718 264.243 37.7178 264.261 37.5525C264.278 37.3873 264.237 37.2212 264.143 37.0829C264.05 36.9447 263.911 36.843 263.75 36.7954C263.589 36.7479 263.416 36.7575 263.261 36.8225C263.223 36.838 263.187 36.857 263.153 36.8795L224.28 61.8222L224.133 61.9157Z" fill="#3F3D56"/>
</g>
<path id="Vector_12" d="M89.3837 145.101L93.6821 128.422L78.1357 126.14L74.7247 140.496L74.7247 140.497L73.6425 145.057L73.6425 145.057L61.2951 197.054L61.2471 197.256L61.07 197.365C59.2367 198.495 57.8313 200.183 57.0617 202.169C60.7333 204.671 64.576 206.919 68.5623 208.897L68.5631 208.897C70.4322 209.828 72.3377 210.697 74.2795 211.503C75.1905 210.292 75.8064 208.888 76.077 207.401C76.3696 205.792 76.2491 204.136 75.7263 202.585C75.5547 202.08 75.3404 201.59 75.0856 201.121L74.9921 200.948L75.0412 200.758L77.1376 192.628L77.1387 192.621L77.1451 192.596L87.9772 150.56L87.9772 150.56L89.2936 145.456L89.2941 145.454L89.3832 145.103L89.3837 145.101Z" fill="#FFAC71" stroke="#222132"/>
<path id="Vector_13" d="M99.7283 44.654C91.047 51.0142 89.2266 63.125 95.6624 71.7042C98.9468 76.0823 102.65 79.8099 106.588 81.6486C108.549 82.5642 110.558 83.0065 112.602 82.8378C114.644 82.6691 116.754 81.8876 118.915 80.304C123.259 77.1222 126.929 71.3445 128.691 65.2564C130.456 59.1578 130.267 52.8928 127.1 48.6718C120.664 40.0927 108.41 38.2938 99.7283 44.654Z" fill="#FFAC71" stroke="#222132"/>
<path id="Vector_14" d="M92.8286 167.644L92.8388 167.716L92.8385 167.718C92.8796 168 92.9162 168.274 92.9476 168.542C93.0493 169.361 93.42 170.126 94.0044 170.719C94.5892 171.312 95.3555 171.7 96.1859 171.822C96.4609 171.862 96.7395 171.873 97.0169 171.855L133.094 169.442C133.913 169.386 134.692 169.072 135.317 168.549C135.941 168.025 136.379 167.319 136.567 166.533C136.567 166.532 136.567 166.532 136.567 166.532L136.596 166.41C138.338 157.744 139.325 148.947 139.546 140.115C139.601 137.654 139.59 135.119 139.496 132.537L139.496 132.536C139.345 128.19 138.922 123.858 138.23 119.564C138.183 119.291 138.138 119.026 138.086 118.764L138.085 118.761C137.278 114.553 135.485 110.591 132.851 107.19C128.379 101.457 121.843 97.6456 114.6 96.55C113.876 96.4437 113.152 96.3658 112.42 96.3183L112.419 96.3182C107.798 96.0037 103.17 96.8138 98.9398 98.6771C94.71 100.54 91.0076 103.4 88.1565 107.004C87.4338 107.919 86.7703 108.877 86.1701 109.874C83.2223 114.774 81.8666 120.448 82.2857 126.132L82.2858 126.133C82.4412 128.285 82.8521 130.412 83.5101 132.47L83.5102 132.47C84.8798 136.759 86.1068 140.739 87.1912 144.409L87.1924 144.413C87.2555 144.634 87.3196 144.853 87.3839 145.073C87.4167 145.186 87.4495 145.298 87.4822 145.411C88.0058 147.203 88.4931 148.915 88.9439 150.549C90.9378 157.765 92.2399 163.483 92.8286 167.644Z" fill="#F95C19" stroke="#222132"/>
<path id="Vector_15" d="M90.7931 176.709C88.5239 178.958 83.7683 184.128 78.1082 192.898L78.1073 192.904L78.0495 192.994C74.7209 198.19 71.7008 203.573 69.0045 209.115C70.8446 210.02 72.7197 210.864 74.6297 211.648C86.9764 216.715 96.2468 219.788 106.605 221.238C116.871 222.675 128.232 222.521 144.743 221.102C144.528 211.87 143.934 201.175 142.688 191.382C141.419 181.404 139.479 172.427 136.609 166.877L136.609 166.877L136.603 166.865C136.553 166.762 136.501 166.663 136.445 166.556C136.429 166.527 136.413 166.496 136.397 166.465C136.14 166.329 129.755 162.999 121.202 161.531C112.543 160.046 101.744 160.48 92.803 167.966C92.787 167.98 92.7719 167.993 92.7576 168.005L92.6725 168.084C92.209 168.514 91.8618 169.052 91.6619 169.647L91.1876 169.489L91.6618 169.647C91.4619 170.242 91.4154 170.878 91.5266 171.495L91.5268 171.496L91.8566 173.347C91.8566 173.347 91.8566 173.347 91.8566 173.347C91.9643 173.95 91.9239 174.57 91.739 175.155C91.554 175.74 91.23 176.273 90.7944 176.707L90.7931 176.709Z" fill="#2F2E41" stroke="#222132"/>
<path id="Vector_16" d="M130.507 134.481L148.185 143.996C149.555 144.733 151.131 145.012 152.676 144.789C154.221 144.566 155.651 143.854 156.751 142.761L195.085 104.645L195.282 104.45L195.553 104.513C197.453 104.961 199.447 104.827 201.268 104.127C203.089 103.428 204.651 102.198 205.746 100.601C206.304 99.7878 206.592 99.1973 206.748 98.5857C206.907 97.9648 206.938 97.2888 206.929 96.2774C206.92 95.271 206.873 94.0254 206.685 92.8335C206.496 91.6294 206.172 90.541 205.649 89.8067C205.413 89.4753 205.34 89.033 205.329 88.6017C205.318 88.1545 205.373 87.6347 205.468 87.0813C205.658 85.9732 206.018 84.6546 206.397 83.3691C206.544 82.8671 206.694 82.3721 206.839 81.8941C207.07 81.1337 207.287 80.4162 207.462 79.7817C207.604 79.2676 207.713 78.8259 207.775 78.4773C207.806 78.303 207.824 78.1611 207.83 78.0506C207.833 77.9959 207.832 77.9533 207.83 77.9214C207.829 77.9057 207.828 77.894 207.827 77.8856C207.825 77.8775 207.824 77.8739 207.824 77.874L207.817 77.8477L207.813 77.8207C207.729 77.297 207.574 76.9459 207.379 76.7272C207.198 76.5231 206.95 76.3954 206.575 76.3782C206.183 76.3601 205.653 76.4649 204.956 76.755C204.263 77.0432 203.435 77.502 202.455 78.1579L202.441 78.1676L202.426 78.1762C201.988 78.4272 201.113 79.1229 199.99 80.0925C198.881 81.0489 197.569 82.2382 196.274 83.4428C193.673 85.8599 191.172 88.3081 190.519 89.0526C189.24 90.5099 188.441 92.3166 188.226 94.2323C188.174 94.7297 188.162 95.2303 188.19 95.7295L188.204 95.9971L187.989 96.1568L149.758 124.508L149.529 124.678L149.266 124.567L138.981 120.248L130.507 134.481Z" fill="#FFAC71" stroke="#222132"/>
<path id="Vector_17" d="M147.985 124.234L147.984 124.235L139.652 132.155L139.652 132.156L135.681 135.936L135.68 135.936L132.198 139.245L132.198 139.245C131.802 139.622 131.327 139.911 130.806 140.091C130.286 140.271 129.732 140.339 129.182 140.288C128.632 140.238 128.1 140.071 127.622 139.799C127.143 139.527 126.73 139.157 126.411 138.713L117.441 126.274L117.441 126.274L113.739 121.138L113.719 121.109L113.694 121.083C111.587 118.896 110.445 115.973 110.516 112.956C110.587 109.939 111.866 107.073 114.073 104.986C116.281 102.898 119.237 101.76 122.295 101.822C125.353 101.885 128.26 103.143 130.379 105.32L130.405 105.346L130.434 105.369L132.942 107.28L132.942 107.28L147.665 118.513L147.985 124.234ZM147.985 124.234C148.325 123.911 148.602 123.53 148.801 123.108M147.985 124.234L148.801 123.108M148.801 123.108L148.832 123.039C149.177 122.265 149.249 121.399 149.038 120.58C148.827 119.76 148.345 119.032 147.666 118.513L148.801 123.108Z" fill="#F95C19" stroke="#222132"/>
<path id="Vector_18" d="M102.127 122.052L98.2807 143.088L98.2571 143.221C98.1466 143.828 97.905 144.403 97.5489 144.909C97.1927 145.415 96.7304 145.839 96.1934 146.152C95.6564 146.465 95.0574 146.66 94.4372 146.724C93.817 146.787 93.1903 146.718 92.5997 146.52L89.7785 145.577L89.0578 145.335L89.0543 145.335L86.7113 144.552L74.2379 140.383L71.8497 139.586C71.2597 139.388 70.7198 139.067 70.2665 138.644C69.8133 138.222 69.4574 137.708 69.2231 137.137C68.9887 136.567 68.8814 135.953 68.9083 135.338C68.9353 134.723 69.096 134.121 69.3794 133.572L79.3322 114.361C80.3708 111.382 82.5623 108.931 85.4263 107.546C88.2903 106.162 91.593 105.956 94.6104 106.974C97.6277 107.992 100.113 110.151 101.522 112.977C102.931 115.804 103.149 119.067 102.127 122.052Z" fill="#F95C19"/>
<path id="Vector_19" d="M111.093 62.5155C116.499 67.4694 120.606 71.3544 127.404 67.9219C131.868 65.6681 131.642 58.4256 130.701 53.56C127.654 44.4861 123.903 41.0246 117.352 36.8087C107.199 32.6558 103.185 31.4751 93.2465 33.8621C83.4268 37.45 80.2914 42.7998 76.9691 56.5124C73.4238 66.1572 73.0439 66.6931 69.3338 75.019C66.9148 83.3419 56.5809 86.3929 47.8226 86.6583C39.0643 86.9236 29.4455 86.0101 22.405 91.1653C13.4237 97.7417 13.3013 111.835 19.4341 121.07C25.5669 130.306 36.1158 135.632 46.4984 139.725C60.2547 145.147 75.4115 149.161 89.7824 145.622C104.153 142.084 116.926 128.755 115.1 114.231C114.329 108.096 111.175 102.543 108.131 97.1421C105.088 91.7407 102.03 86.1109 101.485 79.9521C101.031 74.8198 102.784 69.1956 106.668 65.966C107.371 65.4041 111.094 73.7673 111.328 72.9043C111.561 72.0413 113.419 64.4879 111.143 62.5611L111.093 62.5155Z" fill="#222132"/>
</g>
</svg>
